<svg xmlns="http://www.w3.org/2000/svg" viewBox="0 0 256 256"><path fill="#FFF" d="M216 264V8H40v256"/><path fill="#E5FFE5" d="M39.8 8.4H216v255.8H39.8z"/><path fill="none" stroke="#231F20" stroke-width="16" stroke-miterlimit="10" d="M40 8h176v256"/><path fill="none" stroke="#E5FFE5" stroke-width="16" stroke-miterlimit="10" d="M219 68.6c-2 2.8-3.9 5.7-5.5 8.7s-3.3 6-5.1 9.2c15.8 12 23.1 25.7 21.9 41.1-3.6.5-7.5.5-11.8 0-4.2-.6-8.5-1.3-12.8-2.2-.3-7.3-3-13.8-8-19.3-3.3 6.3-6.5 12.9-9.9 19.7-3.4 6.8-6.9 14.1-10.5 21.8 13.8 8.2 22.7 16.5 26.6 25 3.9 8.5 3 18.8-2.7 30.8-3.1 6.4-6.7 11.6-11.1 15.5s-9 6.8-14 8.6c-5 1.9-10.5 2.8-16.3 2.7-5.8-.1-11.7-.9-17.7-2.4-.9 3.4-2 6.5-3.1 9.3-1.1 2.8-2.1 5.6-3 8.3-1.6-1.4-3.1-2.7-4.6-3.8-1.5-1.2-3.3-2.3-5.5-3.3-2.7-1.3-5.9-2.5-9.4-3.5 1.3-1.8 2.5-3.8 3.7-6 1.1-2.1 2.4-4.5 3.8-6.9l-10.7-5.1c-1 2.5-1.9 4.9-2.9 7.2s-1.8 4.6-2.4 6.8c-1.4-1.3-2.9-2.6-4.4-3.8-1.6-1.2-3.4-2.3-5.4-3.2-2.6-1.2-5.6-2.3-9.2-3.4 1.5-2.2 2.9-4.5 4.2-6.8 1.3-2.3 2.8-4.9 4.3-7.7-6.6-5.4-11.9-11.6-15.7-18.6-3.9-7-6-15.1-6.3-24.2 4.1-.5 8.3-.5 12.6 0 4.4.5 8.9 1.3 13.5 2.4-.8 7.7 1.4 14.9 6.5 21.6 6.6-12.5 13.8-26.9 21.5-43-4.4-3-8.4-6.4-12-10.1-3.6-3.8-6.4-7.7-8.4-11.9s-3.1-8.8-3.3-13.5c-.2-4.8.9-9.8 3.4-14.9 5.1-10.8 12.7-18.1 22.6-21.9 9.9-3.8 20.5-5.1 31.7-3.7l9.5-22.8c2.2.6 4.2 1.2 6.2 1.9 1.9.7 3.7 1.4 5.3 2.2 4 1.9 6.8 3.8 8.4 5.7-1.7 2.6-3.3 5.4-5 8.4-1.7 3-3.4 6.1-5.1 9.3.9.4 1.9.9 3.1 1.3 1.1.4 2.4 1 3.6 1.6l3.3 1.6 7.4-17.7c2 .5 3.9 1 5.5 1.5 1.7.5 3.3 1 4.7 1.8 3.1 1.2 5.9 3.2 8.5 5.7zm-75.8 83.5c-2.2 4.1-4.3 8.2-6.2 12.2-1.9 4-3.8 8-5.8 12.1-1.8 3.8-3.6 7.6-5.4 11.3-1.8 3.7-3.4 7.3-4.8 10.8.1.3 1.4 1 4 2.2l8.2 3.9 22.1-46.4c-.1-.3-1.4-1-4-2.2l-8.1-3.9zm-10.9-50.7c-2.1 4.8-2.3 9.1-.6 12.9 1.7 3.7 4.2 7.2 7.4 10.3 2.7-6.1 5.4-12.2 8.1-18.2 2.7-6 5.4-12.2 8-18.6-5 .1-9.5 1.3-13.7 3.6-4 2.3-7.1 5.6-9.2 10zm44.7 92.1c2.6-5.5 3.3-10.4 1.9-14.6-1.3-4.2-4.9-8.4-10.6-12.4-3.4 7.6-6.6 14.9-9.7 21.8-3.1 7-6.1 14-9.1 21.1 12.9.9 22-4.4 27.5-15.9zm-25.3-59.3c.1.3 1 .8 2.6 1.6l9.6 4.6 19.9-41.7c.7-1.5.7-2.6.1-3.5-.6-.9-1.5-1.6-2.8-2.2-1.5-.7-2.8-1.2-4-1.6s-2.3-.8-3.4-1.3c-7 13.3-14.4 28-22 44.1z"/><path fill="#076F00" d="M219 68.6c-2 2.8-3.9 5.7-5.5 8.7s-3.3 6-5.1 9.2c15.8 12 23.1 25.7 21.9 41.1-3.6.5-7.5.5-11.8 0-4.2-.6-8.5-1.3-12.8-2.2-.3-7.3-3-13.8-8-19.3-3.3 6.3-6.5 12.9-9.9 19.7-3.4 6.8-6.9 14.1-10.5 21.8 13.8 8.2 22.7 16.5 26.6 25 3.9 8.5 3 18.8-2.7 30.8-3.1 6.4-6.7 11.6-11.1 15.5s-9 6.8-14 8.6c-5 1.9-10.5 2.8-16.3 2.7-5.8-.1-11.7-.9-17.7-2.4-.9 3.4-2 6.5-3.1 9.3-1.1 2.8-2.1 5.6-3 8.3-1.6-1.4-3.1-2.7-4.6-3.8-1.5-1.2-3.3-2.3-5.5-3.3-2.7-1.3-5.9-2.5-9.4-3.5 1.3-1.8 2.5-3.8 3.7-6 1.1-2.1 2.4-4.5 3.8-6.9l-10.7-5.1c-1 2.5-1.9 4.9-2.9 7.2s-1.8 4.6-2.4 6.8c-1.4-1.3-2.9-2.6-4.4-3.8-1.6-1.2-3.4-2.3-5.4-3.2-2.6-1.2-5.6-2.3-9.2-3.4 1.5-2.2 2.9-4.5 4.2-6.8 1.3-2.3 2.8-4.9 4.3-7.7-6.6-5.4-11.9-11.6-15.7-18.6-3.9-7-6-15.1-6.3-24.2 4.1-.5 8.3-.5 12.6 0 4.4.5 8.9 1.3 13.5 2.4-.8 7.7 1.4 14.9 6.5 21.6 6.6-12.5 13.8-26.9 21.5-43-4.4-3-8.4-6.4-12-10.1-3.6-3.8-6.4-7.7-8.4-11.9s-3.1-8.8-3.3-13.5c-.2-4.8.9-9.8 3.4-14.9 5.1-10.8 12.7-18.1 22.6-21.9 9.9-3.8 20.5-5.1 31.7-3.7l9.5-22.8c2.2.6 4.2 1.2 6.2 1.9 1.9.7 3.7 1.4 5.3 2.2 4 1.9 6.8 3.8 8.4 5.7-1.7 2.6-3.3 5.4-5 8.4-1.7 3-3.4 6.1-5.1 9.3.9.4 1.9.9 3.1 1.3 1.1.4 2.4 1 3.6 1.6l3.3 1.6 7.4-17.7c2 .5 3.9 1 5.5 1.5 1.7.5 3.3 1 4.7 1.8 3.1 1.2 5.9 3.2 8.5 5.7zm-75.8 83.5c-2.2 4.1-4.3 8.2-6.2 12.2-1.9 4-3.8 8-5.8 12.1-1.8 3.8-3.6 7.6-5.4 11.3-1.8 3.7-3.4 7.3-4.8 10.8.1.3 1.4 1 4 2.2l8.2 3.9 22.1-46.4c-.1-.3-1.4-1-4-2.2l-8.1-3.9zm-10.9-50.7c-2.1 4.8-2.3 9.1-.6 12.9 1.7 3.7 4.2 7.2 7.4 10.3 2.7-6.1 5.4-12.2 8.1-18.2 2.7-6 5.4-12.2 8-18.6-5 .1-9.5 1.3-13.7 3.6-4 2.3-7.1 5.6-9.2 10zm44.7 92.1c2.6-5.5 3.3-10.4 1.9-14.6-1.3-4.2-4.9-8.4-10.6-12.4-3.4 7.6-6.6 14.9-9.7 21.8-3.1 7-6.1 14-9.1 21.1 12.9.9 22-4.4 27.5-15.9zm-25.3-59.3c.1.3 1 .8 2.6 1.6l9.6 4.6 19.9-41.7c.7-1.5.7-2.6.1-3.5-.6-.9-1.5-1.6-2.8-2.2-1.5-.7-2.8-1.2-4-1.6s-2.3-.8-3.4-1.3c-7 13.3-14.4 28-22 44.1z"/><g><path fill="#743300" d="M40 264V8l74.5 34.5V264"/><path fill="none" stroke="#231F20" stroke-width="16" stroke-miterlimit="10" d="M40 264V8l74.5 34.5V264"/></g><circle fill="#FFC40A" cx="88" cy="200" r="8"/></svg>